<svg width="15" height="14" viewBox="0 0 15 14" fill="none" xmlns="http://www.w3.org/2000/svg">
<path d="M14.4202 9.69424H5.11549L5.58268 8.74268L13.3452 8.72861C13.6077 8.72861 13.8327 8.54111 13.8796 8.28174L14.9546 2.26455C14.9827 2.10674 14.9405 1.94424 14.8374 1.8208C14.7864 1.76005 14.7228 1.71112 14.6511 1.67739C14.5793 1.64366 14.501 1.62595 14.4217 1.62549L4.54674 1.59268L4.46237 1.1958C4.40924 0.942676 4.18112 0.758301 3.92174 0.758301H1.50768C1.36139 0.758301 1.2211 0.816412 1.11766 0.91985C1.01423 1.02329 0.956116 1.16358 0.956116 1.30986C0.956116 1.45615 1.01423 1.59644 1.11766 1.69988C1.2211 1.80331 1.36139 1.86143 1.50768 1.86143H3.47487L3.84362 3.61455L4.75143 8.00986L3.58268 9.91768C3.52198 9.9996 3.48543 10.0969 3.47714 10.1985C3.46886 10.3001 3.48918 10.402 3.5358 10.4927C3.62955 10.6786 3.81862 10.7958 4.02799 10.7958H5.00924C4.80005 11.0736 4.68706 11.4121 4.68737 11.7599C4.68737 12.6442 5.40612 13.363 6.29049 13.363C7.17487 13.363 7.89362 12.6442 7.89362 11.7599C7.89362 11.4114 7.77799 11.0724 7.57174 10.7958H10.0889C9.87974 11.0736 9.76675 11.4121 9.76705 11.7599C9.76705 12.6442 10.4858 13.363 11.3702 13.363C12.2546 13.363 12.9733 12.6442 12.9733 11.7599C12.9733 11.4114 12.8577 11.0724 12.6514 10.7958H14.4217C14.7249 10.7958 14.9733 10.5489 14.9733 10.2442C14.9724 10.0981 14.9137 9.95827 14.8101 9.85523C14.7065 9.75219 14.5663 9.69432 14.4202 9.69424V9.69424ZM4.77643 2.68018L13.7733 2.70986L12.8921 7.64424L5.82487 7.65674L4.77643 2.68018ZM6.29049 12.2536C6.01862 12.2536 5.79674 12.0317 5.79674 11.7599C5.79674 11.488 6.01862 11.2661 6.29049 11.2661C6.56237 11.2661 6.78424 11.488 6.78424 11.7599C6.78424 11.8908 6.73222 12.0164 6.63962 12.109C6.54703 12.2016 6.42144 12.2536 6.29049 12.2536V12.2536ZM11.3702 12.2536C11.0983 12.2536 10.8764 12.0317 10.8764 11.7599C10.8764 11.488 11.0983 11.2661 11.3702 11.2661C11.6421 11.2661 11.8639 11.488 11.8639 11.7599C11.8639 11.8908 11.8119 12.0164 11.7193 12.109C11.6267 12.2016 11.5011 12.2536 11.3702 12.2536V12.2536Z" fill="white"/>
</svg>
